<svg xmlns="http://www.w3.org/2000/svg" width="28.312" height="27.375" viewBox="0 0 28.312 27.375"><defs><style>.cls-1{fill:#fff;fill-rule:evenodd}</style></defs><path id="Forme_11" data-name="Forme 11" class="cls-1" d="M913.76 44.961h-11.249a1 1 0 0 0 0 2h11.249a1 1 0 0 0 0-2zm0 5.6h-11.249a1 1 0 1 0 0 2h11.249a1 1 0 1 0 0-1.996zm9.6 2.806a1 1 0 0 0-1.414 0l-6.718 6.718-2.828-2.826a1 1 0 0 0-1.414 1.414l3.536 3.536a1 1 0 0 0 1.414 0l7.425-7.424a1 1 0 0 0-.004-1.415zm-14.76 7.825h-10.25a1 1 0 0 1-1-1V38.807a1 1 0 0 1 1-1h19.57a1 1 0 0 1 1 1V49.5a1 1 0 0 0 2 0V38.807a3 3 0 0 0-3-3h-19.57a3 3 0 0 0-3 3v21.386a3 3 0 0 0 3 3h10.25a1 1 0 1 0 0-2.001z" transform="translate(-895.344 -35.813)"/></svg>