<svg xmlns="http://www.w3.org/2000/svg" width="28" height="19" viewBox="0 0 28 19"><defs><style>.cls-1{fill:#fff;fill-rule:evenodd}</style></defs><path id="Forme_13_copie" data-name="Forme 13 copie" class="cls-1" d="M1097.38 41h-24.76a1.565 1.565 0 0 0-1.62 1.5v16.005a1.565 1.565 0 0 0 1.62 1.5h24.76a1.565 1.565 0 0 0 1.62-1.5V42.494a1.565 1.565 0 0 0-1.62-1.494zm-.98 1.5l-10.89 10.043a.784.784 0 0 1-1.02 0l-10.89-10.049h22.8zm-23.78 16.011v-14.8l10.72 9.889a2.489 2.489 0 0 0 3.32 0l10.72-9.889v14.8h-24.76z" transform="translate(-1071 -41)"/></svg>