<svg xmlns="http://www.w3.org/2000/svg" width="24.5" height="25.375" viewBox="0 0 24.5 25.375"><defs><style>.cls-1{fill:#fff;fill-rule:evenodd}</style></defs><path id="Forme_9" data-name="Forme 9" class="cls-1" d="M731.878 56.088a.905.905 0 0 0 .626.256.879.879 0 0 0 .625-.256l5.644-5.5a.847.847 0 0 0 0-1.224.9.9 0 0 0-1.256 0l-4.126 4.027V38.174a.888.888 0 0 0-1.776 0v15.215l-4.131-4.027a.9.9 0 0 0-1.257 0 .849.849 0 0 0 0 1.224zm11.872 4.6h-22.5a1 1 0 1 0 0 2h22.5a1 1 0 1 0 0-1.996z" transform="translate(-720.25 -37.313)"/></svg>